<svg width="395" height="52" viewBox="0 0 395 52" fill="none" xmlns="http://www.w3.org/2000/svg">
<path d="M13.824 51C13.1413 51 12.5013 50.808 11.904 50.424C11.3493 49.9973 10.9653 49.4853 10.752 48.888L1.28 20.472C0.938667 19.1493 0.938667 18.0827 1.28 17.272C1.664 16.4187 2.47467 15.992 3.712 15.992C4.52267 15.992 5.184 16.2267 5.696 16.696C6.25067 17.1227 6.69867 17.8693 7.04 18.936L15.104 44.152H12.864L20.48 18.424C20.6933 17.6987 21.056 17.1227 21.568 16.696C22.08 16.2267 22.784 15.992 23.68 15.992C24.5333 15.992 25.216 16.2267 25.728 16.696C26.2827 17.1227 26.6453 17.6987 26.816 18.424L33.024 42.616H32.064L39.616 18.936C40.2133 16.9733 41.3227 15.992 42.944 15.992C44.1387 15.992 44.9493 16.4187 45.376 17.272C45.8027 18.0827 45.7813 19.1493 45.312 20.472L35.84 48.888C35.6693 49.4853 35.3067 49.9973 34.752 50.424C34.1973 50.808 33.5573 51 32.832 51C32.1493 51 31.5093 50.808 30.912 50.424C30.3147 49.9973 29.9307 49.4853 29.76 48.888L23.168 24.504H23.808L16.896 48.888C16.7253 49.4853 16.3413 49.9973 15.744 50.424C15.1893 50.808 14.5493 51 13.824 51ZM67.5205 51.256C63.9792 51.256 60.8218 50.5093 58.0485 49.016C55.3178 47.48 53.1632 45.3893 51.5845 42.744C50.0485 40.056 49.2805 36.984 49.2805 33.528C49.2805 30.0293 50.0058 26.9573 51.4565 24.312C52.9498 21.624 54.9978 19.5333 57.6005 18.04C60.2032 16.504 63.1898 15.736 66.5605 15.736C69.8885 15.736 72.7472 16.4827 75.1365 17.976C77.5258 19.4267 79.3392 21.4533 80.5765 24.056C81.8565 26.616 82.4965 29.5813 82.4965 32.952C82.4965 33.7627 82.2192 34.4453 81.6645 35C81.1098 35.512 80.4058 35.768 79.5525 35.768H53.7605V30.648H79.3605L76.7365 32.44C76.6938 30.3067 76.2672 28.408 75.4565 26.744C74.6458 25.0373 73.4938 23.6933 72.0005 22.712C70.5072 21.7307 68.6938 21.24 66.5605 21.24C64.1285 21.24 62.0378 21.7733 60.2885 22.84C58.5818 23.9067 57.2805 25.3787 56.3845 27.256C55.4885 29.0907 55.0405 31.1813 55.0405 33.528C55.0405 35.8747 55.5738 37.9653 56.6405 39.8C57.7072 41.6347 59.1792 43.0853 61.0565 44.152C62.9338 45.2187 65.0885 45.752 67.5205 45.752C68.8432 45.752 70.1872 45.5173 71.5525 45.048C72.9605 44.536 74.0912 43.96 74.9445 43.32C75.5845 42.8507 76.2672 42.616 76.9925 42.616C77.7605 42.5733 78.4218 42.7867 78.9765 43.256C79.7018 43.896 80.0858 44.6 80.1285 45.368C80.1712 46.136 79.8298 46.7973 79.1045 47.352C77.6538 48.504 75.8405 49.4427 73.6645 50.168C71.5312 50.8933 69.4832 51.256 67.5205 51.256ZM108.423 51.256C105.095 51.256 102.108 50.488 99.4625 48.952C96.8172 47.3733 94.7265 45.24 93.1905 42.552C91.6545 39.864 90.8652 36.8347 90.8225 33.464V4.28C90.8225 3.29867 91.1212 2.50933 91.7185 1.912C92.3585 1.31467 93.1478 1.016 94.0865 1.016C95.0678 1.016 95.8572 1.31467 96.4545 1.912C97.0518 2.50933 97.3505 3.29867 97.3505 4.28V21.56C98.8438 19.768 100.636 18.36 102.727 17.336C104.86 16.2693 107.185 15.736 109.703 15.736C112.817 15.736 115.612 16.5253 118.087 18.104C120.561 19.64 122.503 21.752 123.911 24.44C125.361 27.0853 126.087 30.0933 126.087 33.464C126.087 36.8347 125.297 39.864 123.719 42.552C122.183 45.24 120.092 47.3733 117.447 48.952C114.801 50.488 111.793 51.256 108.423 51.256ZM108.423 45.496C110.599 45.496 112.54 44.984 114.247 43.96C115.953 42.8933 117.297 41.4427 118.279 39.608C119.303 37.7733 119.815 35.7253 119.815 33.464C119.815 31.16 119.303 29.112 118.279 27.32C117.297 25.528 115.953 24.12 114.247 23.096C112.54 22.0293 110.599 21.496 108.423 21.496C106.289 21.496 104.348 22.0293 102.599 23.096C100.892 24.12 99.5478 25.528 98.5665 27.32C97.5852 29.112 97.0945 31.16 97.0945 33.464C97.0945 35.7253 97.5852 37.7733 98.5665 39.608C99.5478 41.4427 100.892 42.8933 102.599 43.96C104.348 44.984 106.289 45.496 108.423 45.496ZM150.031 51C146.831 51 143.993 50.3387 141.519 49.016C139.044 47.6507 137.103 45.816 135.695 43.512C134.287 41.1653 133.583 38.5413 133.583 35.64C133.583 34.6587 133.86 33.8693 134.415 33.272C135.012 32.632 135.716 32.312 136.527 32.312C137.38 32.312 138.084 32.632 138.639 33.272C139.193 33.8693 139.47 34.6587 139.47 35.64C139.47 37.3893 139.919 39.0107 140.815 40.504C141.711 41.9547 142.927 43.128 144.463 44.024C145.999 44.8773 147.727 45.304 149.647 45.304C152.463 45.304 154.724 44.536 156.431 43C158.18 41.4213 159.055 39.224 159.055 36.408C159.055 34.616 158.671 33.016 157.903 31.608C157.135 30.1573 156.089 29.0053 154.767 28.152C153.444 27.2987 151.951 26.872 150.287 26.872C149.348 26.872 148.559 26.552 147.919 25.912C147.321 25.272 147.023 24.4827 147.023 23.544C147.023 22.6053 147.321 21.8373 147.919 21.24C148.559 20.6 149.348 20.28 150.287 20.28C151.481 20.28 152.633 19.9813 153.743 19.384C154.852 18.744 155.769 17.912 156.495 16.888C157.22 15.8213 157.583 14.6267 157.583 13.304C157.583 11.4267 156.9 9.848 155.535 8.568C154.169 7.288 152.42 6.648 150.287 6.648C148.665 6.648 147.172 6.968 145.807 7.608C144.484 8.248 143.417 9.10133 142.607 10.168C141.839 11.2347 141.455 12.4293 141.455 13.752C141.455 14.7333 141.177 15.5653 140.623 16.248C140.068 16.888 139.364 17.208 138.51 17.208C137.7 17.208 136.996 16.9093 136.399 16.312C135.844 15.672 135.567 14.8827 135.567 13.944C135.567 11.4693 136.207 9.25067 137.487 7.288C138.767 5.32533 140.516 3.78933 142.735 2.68C144.953 1.528 147.428 0.951996 150.159 0.951996C152.676 0.951996 154.937 1.50666 156.943 2.616C158.991 3.68267 160.591 5.15467 161.743 7.032C162.937 8.86666 163.535 10.9573 163.535 13.304C163.535 14.968 163.15 16.44 162.382 17.72C161.657 19 160.719 20.1093 159.567 21.048C158.415 21.944 157.199 22.6907 155.919 23.288C158.18 24.056 160.015 25.1013 161.423 26.424C162.831 27.704 163.855 29.1973 164.495 30.904C165.177 32.6107 165.519 34.4667 165.519 36.472C165.519 39.2453 164.815 41.7413 163.407 43.96C161.999 46.136 160.121 47.864 157.775 49.144C155.428 50.3813 152.847 51 150.031 51ZM177.911 51C177.1 51 176.375 50.7013 175.735 50.104C175.095 49.5067 174.775 48.7173 174.775 47.736V16.184C174.775 13.112 175.372 10.4453 176.567 8.184C177.804 5.92266 179.511 4.17333 181.687 2.936C183.863 1.656 186.38 1.016 189.239 1.016C190.178 1.016 190.946 1.29333 191.543 1.848C192.183 2.40266 192.503 3.10666 192.503 3.96C192.503 4.77067 192.183 5.47467 191.543 6.072C190.946 6.62667 190.178 6.904 189.239 6.904C187.66 6.904 186.274 7.26667 185.079 7.992C183.884 8.71733 182.946 9.72 182.263 11C181.623 12.28 181.303 13.7947 181.303 15.544V47.736C181.303 48.7173 181.004 49.5067 180.407 50.104C179.81 50.7013 178.978 51 177.911 51ZM172.023 22.776C171.127 22.776 170.402 22.52 169.847 22.008C169.292 21.496 169.015 20.856 169.015 20.088C169.015 19.2347 169.292 18.552 169.847 18.04C170.402 17.528 171.127 17.272 172.023 17.272H187.831C188.727 17.272 189.452 17.528 190.007 18.04C190.562 18.552 190.839 19.2347 190.839 20.088C190.839 20.856 190.562 21.496 190.007 22.008C189.452 22.52 188.727 22.776 187.831 22.776H172.023ZM212.355 51.32C209.411 51.32 206.766 50.7013 204.419 49.464C202.115 48.184 200.28 46.328 198.915 43.896C197.592 41.464 196.931 38.4773 196.931 34.936V19.192C196.931 18.2533 197.23 17.4853 197.827 16.888C198.467 16.248 199.256 15.928 200.195 15.928C201.134 15.928 201.902 16.248 202.499 16.888C203.139 17.4853 203.459 18.2533 203.459 19.192V34.936C203.459 37.3253 203.907 39.3093 204.803 40.888C205.699 42.424 206.915 43.576 208.451 44.344C209.987 45.0693 211.715 45.432 213.635 45.432C215.47 45.432 217.091 45.0693 218.499 44.344C219.95 43.6187 221.102 42.6373 221.955 41.4C222.808 40.1627 223.235 38.776 223.235 37.24H227.267C227.267 39.8853 226.606 42.2747 225.283 44.408C224.003 46.5413 222.232 48.2267 219.971 49.464C217.752 50.7013 215.214 51.32 212.355 51.32ZM226.499 51C225.56 51 224.771 50.7013 224.131 50.104C223.534 49.464 223.235 48.6747 223.235 47.736V19.192C223.235 18.2107 223.534 17.4213 224.131 16.824C224.771 16.2267 225.56 15.928 226.499 15.928C227.48 15.928 228.27 16.2267 228.867 16.824C229.464 17.4213 229.763 18.2107 229.763 19.192V47.736C229.763 48.6747 229.464 49.464 228.867 50.104C228.27 50.7013 227.48 51 226.499 51ZM270.828 51.064C269.889 51.064 269.1 50.7653 268.46 50.168C267.863 49.528 267.564 48.7387 267.564 47.8V32.056C267.564 29.624 267.116 27.64 266.22 26.104C265.324 24.568 264.108 23.4373 262.572 22.712C261.079 21.944 259.351 21.56 257.388 21.56C255.596 21.56 253.975 21.9227 252.524 22.648C251.073 23.3733 249.921 24.3547 249.068 25.592C248.215 26.7867 247.788 28.1733 247.788 29.752H243.756C243.756 27.064 244.396 24.6747 245.676 22.584C246.999 20.4507 248.791 18.7653 251.052 17.528C253.313 16.2907 255.852 15.672 258.668 15.672C261.612 15.672 264.236 16.312 266.54 17.592C268.887 18.8293 270.721 20.664 272.044 23.096C273.409 25.528 274.092 28.5147 274.092 32.056V47.8C274.092 48.7387 273.772 49.528 273.132 50.168C272.535 50.7653 271.767 51.064 270.828 51.064ZM244.524 51.064C243.585 51.064 242.796 50.7653 242.156 50.168C241.559 49.528 241.26 48.7387 241.26 47.8V19.256C241.26 18.2747 241.559 17.4853 242.156 16.888C242.796 16.2907 243.585 15.992 244.524 15.992C245.505 15.992 246.295 16.2907 246.892 16.888C247.489 17.4853 247.788 18.2747 247.788 19.256V47.8C247.788 48.7387 247.489 49.528 246.892 50.168C246.295 50.7653 245.505 51.064 244.524 51.064ZM300.757 51.256C297.429 51.256 294.421 50.488 291.733 48.952C289.088 47.3733 286.976 45.24 285.397 42.552C283.861 39.864 283.093 36.8347 283.093 33.464C283.093 30.0933 283.797 27.0853 285.205 24.44C286.656 21.752 288.618 19.64 291.093 18.104C293.568 16.5253 296.362 15.736 299.477 15.736C301.994 15.736 304.32 16.2693 306.453 17.336C308.586 18.36 310.378 19.768 311.829 21.56V4.28C311.829 3.29867 312.128 2.50933 312.725 1.912C313.365 1.31467 314.154 1.016 315.093 1.016C316.074 1.016 316.864 1.31467 317.461 1.912C318.058 2.50933 318.357 3.29867 318.357 4.28V33.464C318.357 36.8347 317.568 39.864 315.989 42.552C314.453 45.24 312.362 47.3733 309.717 48.952C307.072 50.488 304.085 51.256 300.757 51.256ZM300.757 45.496C302.933 45.496 304.874 44.984 306.581 43.96C308.288 42.8933 309.632 41.4427 310.613 39.608C311.594 37.7733 312.085 35.7253 312.085 33.464C312.085 31.16 311.594 29.112 310.613 27.32C309.632 25.528 308.288 24.12 306.581 23.096C304.874 22.0293 302.933 21.496 300.757 21.496C298.624 21.496 296.682 22.0293 294.933 23.096C293.226 24.12 291.861 25.528 290.837 27.32C289.856 29.112 289.365 31.16 289.365 33.464C289.365 35.7253 289.856 37.7733 290.837 39.608C291.861 41.4427 293.226 42.8933 294.933 43.96C296.682 44.984 298.624 45.496 300.757 45.496ZM346.333 51.256C342.792 51.256 339.634 50.5093 336.861 49.016C334.13 47.48 331.976 45.3893 330.397 42.744C328.861 40.056 328.093 36.984 328.093 33.528C328.093 30.0293 328.818 26.9573 330.269 24.312C331.762 21.624 333.81 19.5333 336.413 18.04C339.016 16.504 342.002 15.736 345.373 15.736C348.701 15.736 351.56 16.4827 353.949 17.976C356.338 19.4267 358.152 21.4533 359.389 24.056C360.669 26.616 361.309 29.5813 361.309 32.952C361.309 33.7627 361.032 34.4453 360.477 35C359.922 35.512 359.218 35.768 358.365 35.768H332.573V30.648H358.173L355.549 32.44C355.506 30.3067 355.08 28.408 354.269 26.744C353.458 25.0373 352.306 23.6933 350.813 22.712C349.32 21.7307 347.506 21.24 345.373 21.24C342.941 21.24 340.85 21.7733 339.101 22.84C337.394 23.9067 336.093 25.3787 335.197 27.256C334.301 29.0907 333.853 31.1813 333.853 33.528C333.853 35.8747 334.386 37.9653 335.453 39.8C336.52 41.6347 337.992 43.0853 339.869 44.152C341.746 45.2187 343.901 45.752 346.333 45.752C347.656 45.752 349 45.5173 350.365 45.048C351.773 44.536 352.904 43.96 353.757 43.32C354.397 42.8507 355.08 42.616 355.805 42.616C356.573 42.5733 357.234 42.7867 357.789 43.256C358.514 43.896 358.898 44.6 358.941 45.368C358.984 46.136 358.642 46.7973 357.917 47.352C356.466 48.504 354.653 49.4427 352.477 50.168C350.344 50.8933 348.296 51.256 346.333 51.256ZM372.771 29.112C372.771 26.552 373.39 24.2693 374.627 22.264C375.907 20.216 377.614 18.5947 379.747 17.4C381.88 16.2053 384.227 15.608 386.787 15.608C389.347 15.608 391.246 16.0347 392.483 16.888C393.763 17.6987 394.254 18.68 393.955 19.832C393.827 20.4293 393.571 20.8987 393.187 21.24C392.846 21.5387 392.44 21.7307 391.971 21.816C391.502 21.9013 390.99 21.88 390.435 21.752C387.704 21.1973 385.251 21.1547 383.075 21.624C380.899 22.0933 379.171 22.968 377.891 24.248C376.654 25.528 376.035 27.1493 376.035 29.112H372.771ZM372.835 51C371.811 51 371.022 50.744 370.467 50.232C369.912 49.6773 369.635 48.8667 369.635 47.8V19.192C369.635 18.168 369.912 17.3787 370.467 16.824C371.022 16.2693 371.811 15.992 372.835 15.992C373.902 15.992 374.691 16.2693 375.203 16.824C375.758 17.336 376.035 18.1253 376.035 19.192V47.8C376.035 48.824 375.758 49.6133 375.203 50.168C374.691 50.7227 373.902 51 372.835 51Z" fill="#6CCFF6"/>
</svg>
